<?xml version="1.0" standalone="no"?>
<!DOCTYPE svg PUBLIC "-//W3C//DTD SVG 20010904//EN"
 "http://www.w3.org/TR/2001/REC-SVG-20010904/DTD/svg10.dtd">
<svg version="1.0" xmlns="http://www.w3.org/2000/svg"
 width="260.000000pt" height="260.000000pt" viewBox="0 0 260.000000 260.000000"
 preserveAspectRatio="xMidYMid meet">
<metadata>
Created by potrace 1.11, written by Peter Selinger 2001-2013
</metadata>
<g transform="translate(0.000000,260.000000) scale(0.100000,-0.100000)"
fill="#000000" stroke="none">
<path d="M733 2262 l-21 -3 0 -831 -1 -830 327 5 c338 5 349 6 492 53 203 68
367 262 411 489 22 112 24 136 24 290 0 169 -5 224 -30 317 -48 183 -139 311
-285 398 -147 87 -280 111 -634 113 -144 1 -271 1 -283 -1z m618 -316 c74 -31
128 -94 161 -186 16 -42 20 -62 34 -135 3 -16 7 -85 8 -152 6 -308 -55 -477
-198 -550 -41 -21 -70 -27 -148 -31 l-98 -5 0 541 0 541 33 3 c53 5 169 -9
208 -26z"/>
<path d="M0 150 l0 -150 1300 0 1300 0 0 150 0 150 -1300 0 -1300 0 0 -150z"/>
</g>
</svg>
