<svg version="1" xmlns="http://www.w3.org/2000/svg" width="346.667" height="346.667" viewBox="0 0 260.000000 260.000000"><path d="M73.3 33.8l-2.1.3v83.1l-.1 83 32.7-.5c33.8-.5 34.9-.6 49.2-5.3 20.3-6.8 36.7-26.2 41.1-48.9 2.2-11.2 2.4-13.6 2.4-29 0-16.9-.5-22.4-3-31.7-4.8-18.3-13.9-31.1-28.5-39.8-14.7-8.7-28-11.1-63.4-11.3-14.4-.1-27.1-.1-28.3.1zm61.8 31.6c7.4 3.1 12.8 9.4 16.1 18.6 1.6 4.2 2 6.2 3.4 13.5.3 1.6.7 8.5.8 15.2.6 30.8-5.5 47.7-19.8 55-4.1 2.1-7 2.7-14.8 3.1l-9.8.5V63.1l3.3-.3c5.3-.5 16.9.9 20.8 2.6zM0 245v15h260v-30H0v15z"/></svg>