<?xml version="1.0" standalone="no"?>
<!DOCTYPE svg PUBLIC "-//W3C//DTD SVG 20010904//EN"
 "http://www.w3.org/TR/2001/REC-SVG-20010904/DTD/svg10.dtd">
<svg version="1.0" xmlns="http://www.w3.org/2000/svg"
 width="264.000000pt" height="264.000000pt" viewBox="0 0 264.000000 264.000000"
 preserveAspectRatio="xMidYMid meet">
<metadata>
Created by potrace 1.11, written by Peter Selinger 2001-2013
</metadata>
<g transform="translate(0.000000,264.000000) scale(0.100000,-0.100000)"
fill="#000000" stroke="none">
<path d="M1338 2559 c-28 -16 -68 -179 -68 -278 l0 -53 -37 7 c-44 8 -53 13
-53 26 0 19 -71 119 -84 119 -9 0 -7 -28 2 -32 15 -6 50 -105 41 -119 -4 -7
-10 -11 -14 -8 -12 13 -38 116 -37 152 0 33 -2 36 -15 25 -12 -10 -14 -9 -12
8 4 19 -37 97 -69 135 -39 46 -52 18 -91 -191 -6 -30 -13 -107 -16 -170 -4
-110 -6 -116 -32 -137 -27 -22 -27 -22 -54 -2 -15 10 -32 19 -38 19 -6 0 -11
4 -11 9 0 5 -10 13 -22 17 -13 3 -30 12 -38 19 -13 11 -42 28 -155 89 -11 6
-22 14 -25 17 -3 3 -12 8 -20 12 -8 4 -31 17 -51 29 -20 13 -58 36 -85 53 -27
16 -51 32 -54 35 -11 12 -120 80 -129 80 -5 0 -11 3 -13 8 -8 18 -91 62 -118
62 -47 0 -39 -35 23 -101 28 -30 69 -76 90 -101 20 -26 50 -60 65 -75 15 -16
45 -50 67 -76 22 -26 51 -61 65 -76 14 -16 32 -37 40 -47 76 -94 126 -151 140
-164 9 -8 29 -33 46 -55 16 -22 39 -50 52 -63 12 -13 19 -29 15 -35 -14 -24
-73 -112 -83 -124 -5 -7 -10 -17 -10 -23 0 -5 -4 -10 -10 -10 -5 0 -10 -5 -10
-10 0 -6 -16 -36 -35 -66 -19 -30 -35 -59 -35 -64 0 -6 -3 -10 -7 -10 -5 0
-13 -10 -19 -23 -22 -46 -82 -154 -107 -194 -15 -24 -27 -45 -27 -49 0 -3 -9
-19 -20 -34 -29 -41 -87 -144 -128 -225 -61 -125 -72 -164 -72 -263 0 -65 5
-92 24 -134 33 -70 79 -119 146 -153 30 -15 63 -32 72 -36 10 -5 26 -9 36 -9
10 0 23 -5 29 -11 5 -5 41 -10 80 -11 81 0 101 8 278 122 66 42 152 92 190
110 68 33 75 34 240 42 94 5 183 9 199 11 38 3 63 -31 75 -103 14 -86 50 -211
72 -257 17 -33 32 -46 71 -62 84 -35 155 -28 276 26 29 12 57 23 62 23 6 0 10
5 10 10 0 6 5 10 11 10 12 0 120 75 154 107 43 40 70 53 115 53 25 0 50 4 55
8 6 4 28 14 50 21 22 8 42 17 45 20 7 8 70 41 79 41 5 0 21 -19 36 -43 39 -58
105 -117 134 -117 19 0 22 4 18 22 -3 13 -15 59 -26 103 -26 104 -26 140 4
279 20 93 25 144 25 256 0 78 -4 149 -9 159 -6 10 -13 64 -16 122 -3 57 -11
124 -17 149 -16 65 -92 219 -130 262 -18 20 -51 58 -73 84 -22 26 -59 69 -81
95 -23 26 -57 69 -75 96 -18 26 -36 50 -41 51 -4 2 -8 8 -8 14 0 21 -75 115
-126 158 -117 96 -220 135 -383 145 -100 5 -117 9 -133 28 -19 21 -19 21 -12
-23 4 -25 17 -68 30 -96 29 -61 29 -70 4 -154 l-19 -65 0 52 c-1 65 -20 192
-32 215 -5 10 -9 26 -9 36 0 10 -4 22 -8 27 -4 6 -14 28 -21 50 -19 59 -78
176 -104 207 -17 20 -26 25 -39 17z m-1117 -206 c30 -18 35 -29 20 -52 -7 -11
-14 -8 -35 15 -24 27 -34 54 -20 54 3 0 19 -8 35 -17z m110 -70 c34 -20 37
-43 9 -68 -20 -18 -21 -18 -45 5 -32 30 -34 80 -2 80 5 0 22 -8 38 -17z m107
-80 c20 -15 41 -30 45 -34 14 -11 -22 -71 -36 -62 -93 59 -97 64 -71 101 19
27 18 28 62 -5z m114 -81 c2 -4 18 -18 36 -31 38 -27 39 -37 8 -75 l-23 -30
-41 40 -42 39 16 33 c15 30 38 42 46 24z m139 -119 c12 -10 27 -24 34 -30 8
-7 18 -13 24 -13 20 0 10 -33 -25 -79 -2 -2 -20 13 -41 33 -21 20 -41 36 -45
36 -13 0 -9 45 4 58 16 16 24 15 49 -5z m135 -101 c15 -10 37 -103 26 -114 -4
-4 -28 6 -54 24 -40 29 -44 35 -34 52 26 45 39 54 62 38z m297 -103 c31 -22
59 -32 93 -35 27 -2 73 -7 101 -10 59 -7 84 5 76 36 -4 17 0 20 25 20 17 0 37
-6 44 -13 23 -23 54 -36 74 -31 34 8 79 -29 97 -82 46 -131 114 -221 232 -309
65 -49 74 -63 75 -107 0 -44 -3 -45 -37 -18 l-26 20 -38 -39 c-22 -22 -39 -43
-39 -48 0 -9 -21 -40 -87 -124 -60 -78 -94 -112 -128 -128 -17 -7 -38 -17 -47
-22 -10 -5 -57 -11 -107 -14 -76 -4 -96 -2 -137 16 -27 12 -74 23 -104 25 -30
3 -62 7 -70 11 -48 19 -221 23 -243 5 -20 -16 -77 -24 -176 -26 -75 -2 -96 -6
-106 -19 -7 -9 -20 -17 -29 -17 -9 0 -16 -4 -16 -10 0 -5 -6 -10 -14 -10 -9 0
-15 -14 -18 -40 -2 -22 0 -40 4 -40 14 0 8 -50 -8 -75 -9 -14 -14 -32 -10 -40
13 -35 -70 34 -115 95 -44 60 -52 92 -38 140 7 23 19 44 26 47 7 3 13 11 13
19 0 8 4 22 9 32 4 9 18 37 29 62 26 56 55 104 65 108 4 2 7 8 7 13 0 5 7 17
16 28 18 20 55 87 156 281 59 112 82 139 143 171 58 31 78 30 140 -1 32 -17
70 -30 83 -30 21 0 24 3 18 28 -22 89 -15 162 14 162 5 0 29 -14 53 -31z"/>
<path d="M1098 1643 c-21 -9 -40 -24 -43 -34 -4 -10 -13 -26 -21 -34 -10 -10
-15 -34 -15 -69 0 -172 166 -255 287 -144 51 47 65 87 53 153 -20 110 -150
173 -261 128z m132 -107 c0 -24 -26 -38 -40 -22 -6 9 -9 20 -5 26 9 15 45 12
45 -4z"/>
</g>
</svg>
