<?xml version="1.0" standalone="no"?>
<!DOCTYPE svg PUBLIC "-//W3C//DTD SVG 20010904//EN"
 "http://www.w3.org/TR/2001/REC-SVG-20010904/DTD/svg10.dtd">
<svg version="1.0" xmlns="http://www.w3.org/2000/svg"
 width="260.000000pt" height="260.000000pt" viewBox="0 0 260.000000 260.000000"
 preserveAspectRatio="xMidYMid meet">
<metadata>
Created by potrace 1.11, written by Peter Selinger 2001-2013
</metadata>
<g transform="translate(0.000000,260.000000) scale(0.100000,-0.100000)"
fill="#000000" stroke="none">
<path d="M5 2588 c-3 -7 -4 -591 -3 -1298 l3 -1285 1295 0 1295 0 0 1295 0
1295 -1293 3 c-1029 2 -1294 0 -1297 -10z m1462 -601 c161 -54 289 -165 359
-312 57 -119 76 -210 76 -370 1 -248 -55 -410 -191 -545 -84 -84 -156 -127
-271 -161 -70 -21 -99 -23 -407 -27 l-333 -4 0 727 0 726 343 -3 c342 -4 342
-4 424 -31z"/>
<path d="M1032 1298 l3 -443 128 2 c187 3 265 32 334 125 55 75 67 130 68 308
0 190 -12 244 -74 326 -68 90 -161 124 -344 124 l-117 0 2 -442z"/>
</g>
</svg>
